<mxfile host="app.diagrams.net" modified="2023-10-30T06:24:05.089Z" agent="Mozilla/5.0 (Windows NT 10.0; Win64; x64) AppleWebKit/537.36 (KHTML, like Gecko) Chrome/109.0.0.0 Safari/537.36" etag="Ql33aVz9AqzCbithvtpr" version="22.0.8" type="device">
  <diagram name="Page-1" id="bluvn_l1vRyqVELX8REd">
    <mxGraphModel dx="880" dy="484" grid="1" gridSize="10" guides="1" tooltips="1" connect="1" arrows="1" fold="1" page="1" pageScale="1" pageWidth="850" pageHeight="1100" math="0" shadow="0">
      <root>
        <mxCell id="0" />
        <mxCell id="1" parent="0" />
        <mxCell id="b9SSLsUQUEf4qQV4StT7-1" value="idle" style="ellipse;whiteSpace=wrap;html=1;" vertex="1" parent="1">
          <mxGeometry x="544" y="50" width="50" height="30" as="geometry" />
        </mxCell>
        <mxCell id="b9SSLsUQUEf4qQV4StT7-4" value="" style="endArrow=classic;html=1;rounded=0;" edge="1" parent="1">
          <mxGeometry width="50" height="50" relative="1" as="geometry">
            <mxPoint x="584" y="77" as="sourcePoint" />
            <mxPoint x="634" y="120" as="targetPoint" />
          </mxGeometry>
        </mxCell>
        <mxCell id="b9SSLsUQUEf4qQV4StT7-5" value="disconnected" style="ellipse;whiteSpace=wrap;html=1;" vertex="1" parent="1">
          <mxGeometry x="610" y="121" width="79" height="42" as="geometry" />
        </mxCell>
        <mxCell id="b9SSLsUQUEf4qQV4StT7-9" value="" style="endArrow=classic;html=1;rounded=0;" edge="1" parent="1">
          <mxGeometry width="50" height="50" relative="1" as="geometry">
            <mxPoint x="678" y="158" as="sourcePoint" />
            <mxPoint x="724" y="200" as="targetPoint" />
          </mxGeometry>
        </mxCell>
        <mxCell id="b9SSLsUQUEf4qQV4StT7-7" value="idle" style="ellipse;whiteSpace=wrap;html=1;" vertex="1" parent="1">
          <mxGeometry x="710" y="200" width="50" height="30" as="geometry" />
        </mxCell>
        <mxCell id="b9SSLsUQUEf4qQV4StT7-10" value="Probe_send" style="text;html=1;align=center;verticalAlign=middle;resizable=0;points=[];autosize=1;strokeColor=none;fillColor=none;" vertex="1" parent="1">
          <mxGeometry x="593" y="73" width="90" height="30" as="geometry" />
        </mxCell>
        <mxCell id="b9SSLsUQUEf4qQV4StT7-11" value="Probe_reset" style="text;html=1;align=center;verticalAlign=middle;resizable=0;points=[];autosize=1;strokeColor=none;fillColor=none;" vertex="1" parent="1">
          <mxGeometry x="689" y="154" width="90" height="30" as="geometry" />
        </mxCell>
        <mxCell id="b9SSLsUQUEf4qQV4StT7-12" value="" style="endArrow=classic;html=1;rounded=0;" edge="1" parent="1">
          <mxGeometry width="50" height="50" relative="1" as="geometry">
            <mxPoint x="554" y="78" as="sourcePoint" />
            <mxPoint x="516" y="120" as="targetPoint" />
          </mxGeometry>
        </mxCell>
        <mxCell id="b9SSLsUQUEf4qQV4StT7-14" style="edgeStyle=orthogonalEdgeStyle;rounded=0;orthogonalLoop=1;jettySize=auto;html=1;exitX=0.5;exitY=1;exitDx=0;exitDy=0;" edge="1" parent="1" source="b9SSLsUQUEf4qQV4StT7-13">
          <mxGeometry relative="1" as="geometry">
            <mxPoint x="516" y="200" as="targetPoint" />
          </mxGeometry>
        </mxCell>
        <mxCell id="b9SSLsUQUEf4qQV4StT7-13" value="Probe_sent" style="ellipse;whiteSpace=wrap;html=1;" vertex="1" parent="1">
          <mxGeometry x="482" y="121" width="68" height="29" as="geometry" />
        </mxCell>
        <mxCell id="b9SSLsUQUEf4qQV4StT7-15" value="Handoff" style="ellipse;whiteSpace=wrap;html=1;" vertex="1" parent="1">
          <mxGeometry x="483" y="200" width="68" height="29" as="geometry" />
        </mxCell>
        <mxCell id="b9SSLsUQUEf4qQV4StT7-16" value="" style="endArrow=classic;html=1;rounded=0;" edge="1" parent="1">
          <mxGeometry width="50" height="50" relative="1" as="geometry">
            <mxPoint x="493" y="147" as="sourcePoint" />
            <mxPoint x="424" y="200" as="targetPoint" />
          </mxGeometry>
        </mxCell>
        <mxCell id="b9SSLsUQUEf4qQV4StT7-17" value="Probed" style="ellipse;whiteSpace=wrap;html=1;" vertex="1" parent="1">
          <mxGeometry x="389" y="202" width="68" height="29" as="geometry" />
        </mxCell>
        <mxCell id="b9SSLsUQUEf4qQV4StT7-18" value="" style="endArrow=classic;html=1;rounded=0;" edge="1" parent="1">
          <mxGeometry width="50" height="50" relative="1" as="geometry">
            <mxPoint x="542" y="146" as="sourcePoint" />
            <mxPoint x="594" y="200" as="targetPoint" />
          </mxGeometry>
        </mxCell>
        <mxCell id="b9SSLsUQUEf4qQV4StT7-19" value="idle" style="ellipse;whiteSpace=wrap;html=1;" vertex="1" parent="1">
          <mxGeometry x="576" y="200" width="50" height="30" as="geometry" />
        </mxCell>
        <mxCell id="b9SSLsUQUEf4qQV4StT7-20" value="" style="endArrow=classic;html=1;rounded=0;" edge="1" parent="1">
          <mxGeometry width="50" height="50" relative="1" as="geometry">
            <mxPoint x="403" y="230" as="sourcePoint" />
            <mxPoint x="354" y="270" as="targetPoint" />
          </mxGeometry>
        </mxCell>
        <mxCell id="b9SSLsUQUEf4qQV4StT7-21" value="idle" style="ellipse;whiteSpace=wrap;html=1;" vertex="1" parent="1">
          <mxGeometry x="318" y="271" width="68" height="29" as="geometry" />
        </mxCell>
        <mxCell id="b9SSLsUQUEf4qQV4StT7-22" value="" style="endArrow=classic;html=1;rounded=0;" edge="1" parent="1">
          <mxGeometry width="50" height="50" relative="1" as="geometry">
            <mxPoint x="450" y="227" as="sourcePoint" />
            <mxPoint x="484" y="270" as="targetPoint" />
          </mxGeometry>
        </mxCell>
        <mxCell id="b9SSLsUQUEf4qQV4StT7-23" value="Handoff" style="ellipse;whiteSpace=wrap;html=1;" vertex="1" parent="1">
          <mxGeometry x="460" y="270" width="64" height="30" as="geometry" />
        </mxCell>
        <mxCell id="b9SSLsUQUEf4qQV4StT7-24" value="" style="endArrow=classic;html=1;rounded=0;entryX=1;entryY=0;entryDx=0;entryDy=0;" edge="1" parent="1" target="b9SSLsUQUEf4qQV4StT7-25">
          <mxGeometry width="50" height="50" relative="1" as="geometry">
            <mxPoint x="481" y="134" as="sourcePoint" />
            <mxPoint x="300" y="187" as="targetPoint" />
          </mxGeometry>
        </mxCell>
        <mxCell id="b9SSLsUQUEf4qQV4StT7-25" value="Probe_Fail" style="ellipse;whiteSpace=wrap;html=1;" vertex="1" parent="1">
          <mxGeometry x="163" y="202" width="68" height="29" as="geometry" />
        </mxCell>
        <mxCell id="b9SSLsUQUEf4qQV4StT7-26" value="" style="endArrow=classic;html=1;rounded=0;" edge="1" parent="1">
          <mxGeometry width="50" height="50" relative="1" as="geometry">
            <mxPoint x="177" y="230" as="sourcePoint" />
            <mxPoint x="128" y="270" as="targetPoint" />
          </mxGeometry>
        </mxCell>
        <mxCell id="b9SSLsUQUEf4qQV4StT7-27" value="idle" style="ellipse;whiteSpace=wrap;html=1;" vertex="1" parent="1">
          <mxGeometry x="92" y="271" width="68" height="29" as="geometry" />
        </mxCell>
        <mxCell id="b9SSLsUQUEf4qQV4StT7-28" value="" style="endArrow=classic;html=1;rounded=0;" edge="1" parent="1">
          <mxGeometry width="50" height="50" relative="1" as="geometry">
            <mxPoint x="224" y="227" as="sourcePoint" />
            <mxPoint x="258" y="270" as="targetPoint" />
          </mxGeometry>
        </mxCell>
        <mxCell id="b9SSLsUQUEf4qQV4StT7-29" value="Handoff" style="ellipse;whiteSpace=wrap;html=1;" vertex="1" parent="1">
          <mxGeometry x="234" y="270" width="64" height="30" as="geometry" />
        </mxCell>
        <mxCell id="b9SSLsUQUEf4qQV4StT7-30" value="Probe_send" style="text;html=1;align=center;verticalAlign=middle;resizable=0;points=[];autosize=1;strokeColor=none;fillColor=none;" vertex="1" parent="1">
          <mxGeometry x="460" y="73" width="90" height="30" as="geometry" />
        </mxCell>
        <mxCell id="b9SSLsUQUEf4qQV4StT7-31" value="Probe_ack" style="text;html=1;align=center;verticalAlign=middle;resizable=0;points=[];autosize=1;strokeColor=none;fillColor=none;" vertex="1" parent="1">
          <mxGeometry x="280" y="148" width="80" height="30" as="geometry" />
        </mxCell>
        <mxCell id="b9SSLsUQUEf4qQV4StT7-32" value="Probe_ack" style="text;html=1;align=center;verticalAlign=middle;resizable=0;points=[];autosize=1;strokeColor=none;fillColor=none;" vertex="1" parent="1">
          <mxGeometry x="383" y="158" width="80" height="30" as="geometry" />
        </mxCell>
        <mxCell id="b9SSLsUQUEf4qQV4StT7-33" value="Probe_reset" style="text;html=1;align=center;verticalAlign=middle;resizable=0;points=[];autosize=1;strokeColor=none;fillColor=none;" vertex="1" parent="1">
          <mxGeometry x="562" y="158" width="90" height="30" as="geometry" />
        </mxCell>
        <mxCell id="b9SSLsUQUEf4qQV4StT7-34" value="Probe_reset" style="text;html=1;align=center;verticalAlign=middle;resizable=0;points=[];autosize=1;strokeColor=none;fillColor=none;" vertex="1" parent="1">
          <mxGeometry x="301" y="228" width="90" height="30" as="geometry" />
        </mxCell>
        <mxCell id="b9SSLsUQUEf4qQV4StT7-35" value="Handoff_init" style="text;html=1;align=center;verticalAlign=middle;resizable=0;points=[];autosize=1;strokeColor=none;fillColor=none;" vertex="1" parent="1">
          <mxGeometry x="454" y="228" width="90" height="30" as="geometry" />
        </mxCell>
        <mxCell id="b9SSLsUQUEf4qQV4StT7-36" value="Handoff_init" style="text;html=1;align=center;verticalAlign=middle;resizable=0;points=[];autosize=1;strokeColor=none;fillColor=none;" vertex="1" parent="1">
          <mxGeometry x="227" y="228" width="90" height="30" as="geometry" />
        </mxCell>
        <mxCell id="b9SSLsUQUEf4qQV4StT7-37" value="Probe_reset" style="text;html=1;align=center;verticalAlign=middle;resizable=0;points=[];autosize=1;strokeColor=none;fillColor=none;" vertex="1" parent="1">
          <mxGeometry x="76" y="228" width="90" height="30" as="geometry" />
        </mxCell>
        <mxCell id="b9SSLsUQUEf4qQV4StT7-38" value="Handoff_init" style="text;html=1;align=center;verticalAlign=middle;resizable=0;points=[];autosize=1;strokeColor=none;fillColor=none;" vertex="1" parent="1">
          <mxGeometry x="503" y="172" width="90" height="30" as="geometry" />
        </mxCell>
      </root>
    </mxGraphModel>
  </diagram>
</mxfile>
